<svg width="320" height="320" viewBox="0 0 320 320" fill="none" xmlns="http://www.w3.org/2000/svg">
<rect width="320" height="320" fill="#FAF9F5"/>
<path d="M59.2369 152H65.9869C69.2869 152 71.6869 154.4 71.6869 157.55V159.5C71.6869 162.65 74.0869 165.05 77.2369 165.05H82.3369C86.5369 165.05 89.8369 168.5 89.8369 172.55V176.3C89.8369 180.5 86.5369 183.8 82.3369 183.8H71.0869C67.9369 183.8 65.5369 186.35 65.5369 189.5V191.3C65.5369 194.6 62.9869 197 59.6869 197H46.7869C43.4869 197 41.0869 194.3 41.0869 191.3V189.5C41.0869 186.35 38.6869 183.8 35.5369 183.8H29.8369C25.7869 183.8 22.3369 180.5 22.3369 176.3V172.55C22.3369 168.5 25.7869 165.05 29.8369 165.05H35.5369C38.6869 165.05 41.0869 167.6 41.0869 170.75V172.55C41.0869 175.85 43.4869 178.25 46.7869 178.25H54.2869C57.4369 178.25 59.8369 175.85 59.8369 172.55V170.75C59.8369 167.6 57.4369 165.05 54.2869 165.05H46.7869C43.4869 165.05 41.0869 162.65 41.0869 159.5V157.55C41.0869 154.4 38.6869 152 35.5369 152H29.8369C25.7869 152 22.3369 148.55 22.3369 144.5V140.75C22.3369 136.55 25.7869 133.25 29.8369 133.25H35.6869C38.8369 133.25 41.2369 131 41.2369 127.55C41.2369 124.55 43.7869 122 46.9369 122H65.9869C69.2869 122 71.6869 124.4 71.6869 127.55C71.6869 130.85 74.0869 133.25 77.2369 133.25H82.3369C86.5369 133.25 89.8369 136.55 89.8369 140.75V144.5C89.8369 148.55 86.5369 152 82.3369 152H77.2369C74.0869 152 71.6869 149.6 71.6869 146.3C71.6869 143.15 69.2869 140.75 65.9869 140.75H59.2369C56.0869 140.75 53.6869 143.15 53.6869 146.3C53.6869 149.6 56.0869 152 59.2369 152ZM154.487 140.75C157.787 140.75 160.187 138.35 160.187 135.05V129.5C160.187 125.3 163.487 122 167.687 122H170.087C174.287 122 177.437 125.3 177.587 129.5V189.5C177.587 193.55 174.287 197 170.087 197H167.687C163.487 197 160.187 193.55 160.187 189.5V165.05C160.187 161.9 157.787 159.5 154.487 159.5H152.087C148.937 159.5 146.537 161.9 146.537 165.05V176.3C146.537 180.5 143.087 183.8 139.037 183.8H136.337C132.287 183.8 128.837 180.5 128.837 176.3V165.05C128.837 161.9 126.437 159.5 123.287 159.5H120.737C117.587 159.5 115.187 161.9 115.187 165.05V189.5C115.187 193.55 111.737 197 107.687 197H104.837C100.787 197 97.3369 193.55 97.3369 189.5V129.5C97.3369 125.3 100.787 122 104.837 122H107.687C111.737 122 115.037 125.3 115.187 129.5V135.05C115.187 138.35 117.587 140.75 120.737 140.75H123.287C126.437 140.75 128.837 143.15 128.837 146.3V152C128.837 156.05 132.287 159.5 136.337 159.5H139.037C143.087 159.5 146.537 156.05 146.537 152V146.3C146.537 143.15 148.937 140.75 152.087 140.75H154.487ZM231.274 122C235.474 122 238.774 125.3 238.774 129.5V133.25C238.774 137.3 235.474 140.75 231.274 140.75H227.524C223.474 140.75 220.024 144.05 220.024 148.55V189.5C220.024 193.55 216.724 197 212.524 197H208.774C204.724 197 201.274 193.55 201.274 189.5V148.55C201.274 144.05 197.974 140.75 193.774 140.75H190.024C185.974 140.75 182.524 137.3 182.524 133.25V129.5C182.524 125.3 185.974 122 190.024 122H231.274ZM300.786 189.5C300.786 193.55 297.486 197 293.286 197H290.286C286.236 197 282.786 193.55 282.786 189.5V174.8C282.786 170.3 279.486 167 275.286 167H270.786C266.736 167 263.286 170.3 263.286 174.8V189.5C263.286 193.55 259.986 197 255.786 197H252.786C248.736 197 245.286 193.55 245.286 189.5V129.5C245.286 125.3 248.736 122 252.786 122H255.786C259.986 122 263.286 125.3 263.286 129.5V140.75C263.286 144.8 266.736 148.25 270.786 148.25H275.286C279.486 148.25 282.786 144.8 282.786 140.75V129.5C282.786 125.3 286.236 122 290.286 122H293.286C297.486 122 300.786 125.3 300.786 129.5V189.5Z" fill="#E8714E"/>
</svg>
